<svg id="Layer_1" data-name="Layer 1" xmlns="http://www.w3.org/2000/svg" viewBox="0 0 205.16 231.18"><title>hc-icon-logo9</title><path d="M246.53,213.27c0,19.64,0,39.29.05,58.93,0,3-1,4.93-3.67,6.39Q198,303.13,153.12,327.78a33.54,33.54,0,0,0-3.8,2.15c-3.26,2.41-6.17,2-9.67,0q-45.41-25.31-91-50.2c-5.16-2.8-7.26-5.9-7.21-12,.3-37.91.18-75.83.1-113.74,0-3.24,1-5.2,4-6.65q47.49-23,94.87-46.13a7.12,7.12,0,0,1,6.82,0q33.71,16.57,67.48,33c9.41,4.59,18.79,9.23,28.24,13.71a5.67,5.67,0,0,1,3.62,5.82C246.5,173.64,246.53,193.46,246.53,213.27ZM61.06,178.94c-.07,1.56-.17,2.65-.17,3.75,0,10.38,0,20.76,0,31.13q-.09,25.22-.26,50.43a3.83,3.83,0,0,0,2.34,4.05c4.77,2.34,9.44,4.89,14.17,7.33.78.41,1.62.69,3,1.25V241.94c1.25.53,2,.81,2.78,1.18,7.42,3.76,14.81,7.59,22.27,11.26a3.55,3.55,0,0,1,2.32,3.73c-.09,10.12,0,20.24-.08,30.36a3.62,3.62,0,0,0,2.32,3.77c4.53,2.25,9,4.7,13.44,7.05,1,.5,1.93.94,3.11,1.51.1-.89.2-1.39.2-1.88q0-42.85-.07-85.69a4,4,0,0,0-1.8-2.88c-4.94-2.75-10-5.28-15-7.86a18,18,0,0,0-2.27-.77v32.94c-1.24-.55-2-.87-2.78-1.25-7.36-3.67-14.69-7.43-22.11-11a3.75,3.75,0,0,1-2.42-4c.09-9.26,0-18.53.07-27.79a3.61,3.61,0,0,0-2.31-3.8c-4.73-2.24-9.38-4.63-14.08-6.94C62.93,179.59,62.21,179.38,61.06,178.94Zm169.36,14A20.56,20.56,0,0,0,215,185.76c-9.42-.32-17.4,3.41-24.47,9.22-14.09,11.6-22.63,26.68-26.92,44.24-2.84,11.62-3.25,23.24,1.54,34.56,5.15,12.18,15.66,17.55,28.39,14,17-4.71,27.64-17,37-31.21l-11.25-10.2a4.67,4.67,0,0,0-.68.57c-.43.64-.84,1.29-1.27,1.94-4.61,7-10.23,12.94-18.35,15.84-6.95,2.48-13.1-.13-16.28-6.77a18.46,18.46,0,0,1-1.77-5.6c-1.79-15.29,3.2-28.32,14.25-38.74,7.75-7.32,14.44-7.59,23.72-2.3Z" transform="translate(-41.42 -100.41)"/></svg>